HIERARCHY
ROOT hips
{
	OFFSET 0.000000 104.274902 0.000000
	CHANNELS 6 Xposition Yposition Zposition Xrotation Yrotation Zrotation
	JOINT spine
	{
		OFFSET 0.000000 10.181549 0.131524
		CHANNELS 6 Xposition Yposition Zposition Xrotation Yrotation Zrotation
		JOINT chest
		{
			OFFSET 0.000000 9.893990 -1.470706
			CHANNELS 3 Xrotation Yrotation Zrotation
			JOINT upperChest
			{
				OFFSET 0.000000 9.220787 -1.370637
				CHANNELS 3 Xrotation Yrotation Zrotation
				JOINT neck
				{
					OFFSET 0.000000 16.740372 -2.049022
					CHANNELS 6 Xposition Yposition Zposition Xrotation Yrotation Zrotation
					JOINT head
					{
						OFFSET 0.000000 9.617859 1.684976
						CHANNELS 6 Xposition Yposition Zposition Xrotation Yrotation Zrotation
						JOINT headEnd
						{
							OFFSET 0.000000 22.037384 7.501072
							CHANNELS 6 Xposition Yposition Zposition Xrotation Yrotation Zrotation
							End Site
							{
								OFFSET 0.000000 23.106567 -2.828246
							}
						}
					}
				}
				JOINT rightShoulder
				{
					OFFSET -4.570000 11.014877 -2.160840
					CHANNELS 6 Xposition Yposition Zposition Xrotation Yrotation Zrotation
					JOINT rightUpperArm
					{
						OFFSET -10.592867 -0.524796 -2.232105
						CHANNELS 3 Xrotation Yrotation Zrotation
						JOINT rightLowerArm
						{
							OFFSET -27.841497 0.000000 -0.000002
							CHANNELS 3 Xrotation Yrotation Zrotation
							JOINT rightHand
							{
								OFFSET -28.328812 0.000000 -0.000001
								CHANNELS 3 Xrotation Yrotation Zrotation
								JOINT rightThumbProximal
								{
									OFFSET -2.464798 -1.573990 2.681911
									CHANNELS 6 Xposition Yposition Zposition Xrotation Yrotation Zrotation
									JOINT rightThumbIntermediate
									{
										OFFSET -3.244781 -1.873383 1.873376
										CHANNELS 3 Xrotation Yrotation Zrotation
										JOINT rightThumbDistal
										{
											OFFSET -2.646263 -1.527817 1.527818
											CHANNELS 6 Xposition Yposition Zposition Xrotation Yrotation Zrotation
											JOINT rightHandThumb4
											{
												OFFSET -1.994591 -1.151581 1.151575
												CHANNELS 6 Xposition Yposition Zposition Xrotation Yrotation Zrotation
												End Site
												{
													OFFSET -1.860176 -1.142715 1.365483
												}
											}
										}
									}
								}
								JOINT rightIndexProximal
								{
									OFFSET -9.108299 -0.517883 2.259803
									CHANNELS 6 Xposition Yposition Zposition Xrotation Yrotation Zrotation
									JOINT rightIndexIntermediate
									{
										OFFSET -3.699997 0.000000 0.000000
										CHANNELS 3 Xrotation Yrotation Zrotation
										JOINT rightIndexDistal
										{
											OFFSET -2.850006 0.000000 0.000000
											CHANNELS 3 Xrotation Yrotation Zrotation
											JOINT rightHandIndex4
											{
												OFFSET -2.772194 0.000000 0.000000
												CHANNELS 3 Xrotation Yrotation Zrotation
												End Site
												{
													OFFSET -2.772202 0.000000 -0.000484
												}
											}
										}
									}
								}
								JOINT rightMiddleProximal
								{
									OFFSET -9.532501 0.000000 -0.000000
									CHANNELS 6 Xposition Yposition Zposition Xrotation Yrotation Zrotation
									JOINT rightMiddleIntermediate
									{
										OFFSET -3.699997 0.000000 0.000000
										CHANNELS 3 Xrotation Yrotation Zrotation
										JOINT rightMiddleDistal
										{
											OFFSET -2.949997 0.000000 0.000000
											CHANNELS 3 Xrotation Yrotation Zrotation
											JOINT rightHandMiddle4
											{
												OFFSET -2.946594 0.000000 0.000000
												CHANNELS 3 Xrotation Yrotation Zrotation
												End Site
												{
													OFFSET -2.946602 0.000000 -0.000982
												}
											}
										}
									}
								}
								JOINT rightRingProximal
								{
									OFFSET -9.103600 -0.043106 -1.865100
									CHANNELS 6 Xposition Yposition Zposition Xrotation Yrotation Zrotation
									JOINT rightRingIntermediate
									{
										OFFSET -3.379303 0.000000 0.000000
										CHANNELS 3 Xrotation Yrotation Zrotation
										JOINT rightRingDistal
										{
											OFFSET -2.889694 0.000000 0.000000
											CHANNELS 3 Xrotation Yrotation Zrotation
											JOINT rightHandRing4
											{
												OFFSET -2.638802 0.000000 0.000000
												CHANNELS 3 Xrotation Yrotation Zrotation
												End Site
												{
													OFFSET -2.638802 0.000000 0.004218
												}
											}
										}
									}
								}
								JOINT rightLittleProximal
								{
									OFFSET -8.076698 -0.486725 -3.806299
									CHANNELS 6 Xposition Yposition Zposition Xrotation Yrotation Zrotation
									JOINT rightLittleIntermediate
									{
										OFFSET -3.600006 0.000000 0.000000
										CHANNELS 3 Xrotation Yrotation Zrotation
										JOINT rightLittleDistal
										{
											OFFSET -2.099998 0.000000 0.000000
											CHANNELS 3 Xrotation Yrotation Zrotation
											JOINT rightHandPinky4
											{
												OFFSET -2.115791 0.000000 0.000000
												CHANNELS 3 Xrotation Yrotation Zrotation
												End Site
												{
													OFFSET -2.115799 0.000000 0.000174
												}
											}
										}
									}
								}
							}
						}
					}
				}
				JOINT leftShoulder
				{
					OFFSET 4.570400 11.014679 -2.160816
					CHANNELS 6 Xposition Yposition Zposition Xrotation Yrotation Zrotation
					JOINT leftUpperArm
					{
						OFFSET 10.592373 -0.524597 -2.232116
						CHANNELS 3 Xrotation Yrotation Zrotation
						JOINT leftLowerArm
						{
							OFFSET 27.841488 0.000000 0.000001
							CHANNELS 3 Xrotation Yrotation Zrotation
							JOINT leftHand
							{
								OFFSET 28.328808 0.000000 -0.000000
								CHANNELS 3 Xrotation Yrotation Zrotation
								JOINT leftThumbProximal
								{
									OFFSET 2.466103 -1.576202 2.681698
									CHANNELS 6 Xposition Yposition Zposition Xrotation Yrotation Zrotation
									JOINT leftThumbIntermediate
									{
										OFFSET 3.243317 -1.872528 1.872530
										CHANNELS 3 Xrotation Yrotation Zrotation
										JOINT leftThumbDistal
										{
											OFFSET 2.647881 -1.528763 1.528754
											CHANNELS 6 Xposition Yposition Zposition Xrotation Yrotation Zrotation
											JOINT leftHandThumb4
											{
												OFFSET 1.998924 -1.154083 1.154080
												CHANNELS 6 Xposition Yposition Zposition Xrotation Yrotation Zrotation
												End Site
												{
													OFFSET 1.884041 -1.149155 1.337651
												}
											}
										}
									}
								}
								JOINT leftIndexProximal
								{
									OFFSET 9.109299 -0.518005 2.259900
									CHANNELS 6 Xposition Yposition Zposition Xrotation Yrotation Zrotation
									JOINT leftIndexIntermediate
									{
										OFFSET 3.699997 0.000000 0.000000
										CHANNELS 3 Xrotation Yrotation Zrotation
										JOINT leftIndexDistal
										{
											OFFSET 2.850006 0.000000 0.000000
											CHANNELS 3 Xrotation Yrotation Zrotation
											JOINT leftHandIndex4
											{
												OFFSET 2.774895 0.000000 0.000000
												CHANNELS 3 Xrotation Yrotation Zrotation
												End Site
												{
													OFFSET 2.774902 0.000000 -0.000072
												}
											}
										}
									}
								}
								JOINT leftMiddleProximal
								{
									OFFSET 9.533401 0.000000 0.000000
									CHANNELS 6 Xposition Yposition Zposition Xrotation Yrotation Zrotation
									JOINT leftMiddleIntermediate
									{
										OFFSET 3.699997 0.000000 0.000000
										CHANNELS 3 Xrotation Yrotation Zrotation
										JOINT leftMiddleDistal
										{
											OFFSET 2.949997 0.000000 0.000000
											CHANNELS 3 Xrotation Yrotation Zrotation
											JOINT leftHandMiddle4
											{
												OFFSET 2.952896 0.000000 0.000000
												CHANNELS 3 Xrotation Yrotation Zrotation
												End Site
												{
													OFFSET 2.952904 0.000000 0.000165
												}
											}
										}
									}
								}
								JOINT leftRingProximal
								{
									OFFSET 9.104500 -0.042999 -1.865101
									CHANNELS 6 Xposition Yposition Zposition Xrotation Yrotation Zrotation
									JOINT leftRingIntermediate
									{
										OFFSET 3.149994 0.000000 0.000000
										CHANNELS 3 Xrotation Yrotation Zrotation
										JOINT leftRingDistal
										{
											OFFSET 2.950005 0.000000 0.000000
											CHANNELS 3 Xrotation Yrotation Zrotation
											JOINT leftHandRing4
											{
												OFFSET 2.644302 0.000000 0.000000
												CHANNELS 3 Xrotation Yrotation Zrotation
												End Site
												{
													OFFSET 2.644302 0.000000 0.000083
												}
											}
										}
									}
								}
								JOINT leftLittleProximal
								{
									OFFSET 8.077805 -0.486893 -3.806302
									CHANNELS 6 Xposition Yposition Zposition Xrotation Yrotation Zrotation
									JOINT leftLittleIntermediate
									{
										OFFSET 3.600006 0.000000 0.000000
										CHANNELS 3 Xrotation Yrotation Zrotation
										JOINT leftLittleDistal
										{
											OFFSET 2.099998 0.000000 0.000000
											CHANNELS 3 Xrotation Yrotation Zrotation
											JOINT leftHandPinky4
											{
												OFFSET 2.125496 0.000000 0.000000
												CHANNELS 3 Xrotation Yrotation Zrotation
												End Site
												{
													OFFSET 2.125504 0.000000 -0.001254
												}
											}
										}
									}
								}
							}
						}
					}
				}
			}
		}
	}
	JOINT rightUpperLeg
	{
		OFFSET -8.207800 -6.751701 -1.599544
		CHANNELS 6 Xposition Yposition Zposition Xrotation Yrotation Zrotation
		JOINT rightLowerLeg
		{
			OFFSET 0.000004 -44.370152 0.345934
			CHANNELS 3 Xrotation Yrotation Zrotation
			JOINT rightFoot
			{
				OFFSET 0.000004 -44.423664 -3.043535
				CHANNELS 3 Xrotation Yrotation Zrotation
				JOINT rightToes
				{
					OFFSET 0.000001 -8.728691 10.710592
					CHANNELS 3 Xrotation Yrotation Zrotation
					JOINT rightToesEnd
					{
						OFFSET 0.000000 -0.000665 9.278101
						CHANNELS 3 Xrotation Yrotation Zrotation
						End Site
						{
							OFFSET 0.000000 -0.000665 9.278103
						}
					}
				}
			}
		}
	}
	JOINT leftUpperLeg
	{
		OFFSET 8.207800 -6.751701 -1.599544
		CHANNELS 6 Xposition Yposition Zposition Xrotation Yrotation Zrotation
		JOINT leftLowerLeg
		{
			OFFSET 0.000004 -44.370037 0.346940
			CHANNELS 3 Xrotation Yrotation Zrotation
			JOINT leftFoot
			{
				OFFSET 0.000004 -44.423611 -3.044388
				CHANNELS 3 Xrotation Yrotation Zrotation
				JOINT leftToes
				{
					OFFSET 0.000001 -8.728690 10.710592
					CHANNELS 3 Xrotation Yrotation Zrotation
					JOINT leftToesEnd
					{
						OFFSET 0.000000 -0.000680 9.278101
						CHANNELS 3 Xrotation Yrotation Zrotation
						End Site
						{
							OFFSET 0.000000 -0.000680 9.278101
						}
					}
				}
			}
		}
	}
}
MOTION
Frames: 4
Frame Time: 0.033333
1.310217 81.738174 6.104828 37.523799 53.682401 -16.398722 -0.000003 10.181540 0.131522 15.435934 -6.463847 -6.718500 -5.330955 -0.151078 -3.433133 0.643465 -0.945792 -3.574069 0.000003 16.740381 -2.049022 -12.427773 -9.502133 1.302339 0.000005 9.617858 1.684978 2.684946 -44.809046 15.776274 -0.000002 22.037369 7.501076 0.000001 0.000000 -0.000000 -4.569993 11.014883 -2.160845 2.084787 11.743647 16.176772 -48.989785 1.966705 23.134062 -0.000035 54.096932 0.000077 33.547564 6.959610 -44.543915 -2.464808 -1.574004 2.681912 -13.883075 -3.695138 13.911972 7.375313 -23.020837 -2.783653 -2.646269 -1.527805 1.527817 -3.459188 -24.954444 -18.671251 -1.994602 -1.151585 1.151582 -0.000001 -0.000005 0.000001 -9.108301 -0.517889 2.259805 0.078017 -1.754122 -6.493626 0.027748 -0.508181 6.250803 0.018237 -0.412070 5.065077 0.000002 0.000002 -0.000000 -9.532513 -0.000002 0.000002 0.068870 -2.722091 5.410682 0.028370 -0.513859 6.320901 0.011457 -0.326859 4.015646 -0.000002 -0.000000 -0.000000 -9.103607 -0.043111 -1.865100 3.283483 -10.155113 25.110496 0.330892 -1.725743 21.706268 0.456541 -2.012750 25.557041 0.000000 -0.000001 0.000003 -8.076704 -0.486723 -3.806297 10.235424 -21.028440 34.973256 0.938129 -2.805176 36.976657 2.300857 -4.018220 59.577725 -0.000000 -0.000000 0.000001 4.570405 11.014702 -2.160815 5.409261 2.281822 -10.821557 22.459168 -15.523779 -26.310539 -0.000004 -61.564511 0.000011 1.971020 -25.388652 24.520490 2.466093 -1.576201 2.681700 -16.063768 -0.644294 -1.721583 4.401043 20.298390 -9.586122 2.647889 -1.528750 1.528755 -17.892555 -22.034617 5.837314 1.998917 -1.154090 1.154080 0.000000 0.000001 -0.000000 9.109293 -0.518025 2.259898 2.184457 -10.355549 2.710307 0.195047 1.500697 -14.811777 0.025222 0.543683 -5.313021 0.000001 0.000004 0.000001 9.533400 0.000014 -0.000000 -0.505265 -0.552168 -9.697526 0.204914 1.537504 -15.183777 0.025200 0.543380 -5.310168 -0.000000 -0.000001 -0.000001 9.104511 -0.042996 -1.865103 4.540158 16.352508 -18.454842 2.291120 4.646569 -52.476302 1.265473 3.638204 -38.349794 -0.000001 0.000000 0.000001 8.077804 -0.486886 -3.806297 1.152550 25.023786 -17.568539 2.223978 4.594397 -51.642879 1.265297 3.637973 -38.346878 0.000000 0.000001 0.000001 -8.207801 -6.751709 -1.599543 -65.228641 16.251344 -32.911550 22.646044 -4.048054 -2.177659 35.830674 -21.053600 21.482530 -6.968799 0.000000 -0.000002 0.000000 -0.000000 -0.000000 8.207797 -6.751710 -1.599546 -58.490298 23.394212 7.231512 71.823961 9.517427 2.181706 -24.348444 29.418926 -13.746557 -2.282104 0.000022 0.000007 0.000000 -0.000000 0.000000 
1.410887 81.451248 5.480522 39.116244 54.231589 -18.023377 0.000002 10.181547 0.131524 15.519619 -6.466456 -6.730579 -5.263366 -0.097059 -3.513323 0.711705 -0.901918 -3.656441 0.000001 16.740366 -2.049020 -12.816182 -9.566074 1.264697 -0.000002 9.617851 1.684980 2.915540 -45.101300 16.375626 -0.000000 22.037354 7.501075 -0.000000 -0.000000 0.000000 -4.569996 11.014874 -2.160842 2.323608 11.482773 14.926605 -50.035104 1.027976 24.099201 -0.000033 53.392197 0.000059 33.729906 6.792400 -44.731377 -2.464798 -1.573994 2.681912 -13.883076 -3.695163 13.911964 7.375307 -23.020816 -2.783646 -2.646269 -1.527782 1.527815 -3.459182 -24.954446 -18.671258 -1.994613 -1.151588 1.151574 0.000002 -0.000000 0.000003 -9.108304 -0.517874 2.259802 0.078010 -1.754112 -6.493627 0.027757 -0.508192 6.250780 0.018218 -0.412047 5.065125 0.000000 0.000000 -0.000000 -9.532503 0.000020 0.000001 0.068860 -2.722087 5.410679 0.028369 -0.513855 6.320905 0.011461 -0.326853 4.015649 -0.000001 0.000000 -0.000000 -9.103600 -0.043090 -1.865102 3.283473 -10.155113 25.110504 0.330885 -1.725721 21.706273 0.456546 -2.012758 25.557031 -0.000001 -0.000001 0.000003 -8.076699 -0.486744 -3.806300 10.235412 -21.028426 34.973256 0.938124 -2.805180 36.976677 2.300844 -4.018208 59.577718 -0.000001 -0.000000 0.000002 4.570406 11.014689 -2.160818 5.743546 3.001771 -10.860823 24.999508 -17.045365 -25.110506 -0.000003 -58.978226 0.000005 -0.453938 -26.567088 24.024980 2.466105 -1.576198 2.681703 -16.063765 -0.644307 -1.721597 4.401027 20.298412 -9.586136 2.647895 -1.528750 1.528753 -17.892534 -22.034621 5.837314 1.998913 -1.154094 1.154069 0.000000 0.000000 0.000002 9.109286 -0.518025 2.259904 2.184439 -10.355538 2.710282 0.195058 1.500685 -14.811759 0.025222 0.543679 -5.313024 -0.000001 0.000007 -0.000000 9.533399 0.000005 0.000001 -0.505267 -0.552162 -9.697530 0.204913 1.537502 -15.183811 0.025191 0.543378 -5.310146 0.000000 -0.000000 0.000000 9.104496 -0.043002 -1.865097 4.540168 16.352508 -18.454833 2.291110 4.646580 -52.476306 1.265484 3.638207 -38.349798 -0.000000 0.000000 0.000001 8.077806 -0.486883 -3.806300 1.152557 25.023773 -17.568544 2.223976 4.594413 -51.642913 1.265295 3.637969 -38.346885 -0.000000 -0.000001 -0.000001 -8.207799 -6.751711 -1.599546 -65.205535 16.148140 -33.824675 21.857572 -4.345236 -2.210940 36.772376 -21.273872 22.069197 -6.973539 -0.000007 -0.000008 -0.000000 -0.000000 -0.000000 8.207800 -6.751709 -1.599546 -59.672398 22.854829 6.481521 72.518823 9.624874 2.151291 -24.628689 29.461369 -12.985006 -2.176435 0.000003 -0.000011 0.000000 0.000001 0.000000 
1.547125 81.243011 5.023987 40.732540 54.722509 -19.690088 -0.000003 10.181531 0.131524 15.528155 -6.506055 -6.742715 -5.253607 -0.056181 -3.574940 0.721671 -0.859345 -3.720320 0.000002 16.740362 -2.049012 -12.911732 -9.633984 1.319178 0.000000 9.617841 1.684982 2.998205 -45.266864 16.789474 0.000001 22.037354 7.501074 -0.000001 0.000000 0.000000 -4.570000 11.014875 -2.160832 2.454943 11.786472 14.113136 -50.813401 0.010364 24.192738 -0.000048 52.939584 0.000079 33.788239 6.562602 -44.941511 -2.464794 -1.574006 2.681909 -13.883079 -3.695162 13.911958 7.375307 -23.020820 -2.783646 -2.646265 -1.527807 1.527823 -3.459194 -24.954453 -18.671256 -1.994628 -1.151582 1.151573 0.000002 -0.000004 0.000003 -9.108305 -0.517877 2.259809 0.078012 -1.754117 -6.493636 0.027748 -0.508191 6.250814 0.018226 -0.412064 5.065106 -0.000000 0.000000 -0.000002 -9.532511 0.000017 0.000001 0.068855 -2.722090 5.410668 0.028371 -0.513858 6.320911 0.011455 -0.326851 4.015635 0.000001 -0.000002 -0.000000 -9.103606 -0.043105 -1.865099 3.283472 -10.155120 25.110501 0.330888 -1.725723 21.706263 0.456539 -2.012741 25.557034 0.000000 0.000001 0.000001 -8.076702 -0.486725 -3.806295 10.235411 -21.028428 34.973253 0.938126 -2.805171 36.976684 2.300842 -4.018207 59.577712 -0.000000 0.000001 0.000000 4.570401 11.014658 -2.160809 6.020368 3.821909 -10.570576 27.215640 -18.696258 -24.621282 0.000009 -56.207068 -0.000011 -3.634345 -28.123493 23.199122 2.466094 -1.576203 2.681700 -16.063749 -0.644321 -1.721592 4.401024 20.298417 -9.586119 2.647882 -1.528752 1.528747 -17.892553 -22.034605 5.837302 1.998924 -1.154093 1.154076 0.000001 0.000000 0.000003 9.109305 -0.518013 2.259900 2.184454 -10.355532 2.710302 0.195046 1.500697 -14.811754 0.025224 0.543666 -5.313034 0.000001 0.000003 -0.000000 9.533399 0.000001 0.000002 -0.505252 -0.552177 -9.697505 0.204908 1.537507 -15.183811 0.025182 0.543376 -5.310140 0.000000 -0.000001 0.000001 9.104503 -0.042997 -1.865099 4.540175 16.352511 -18.454838 2.291113 4.646576 -52.476316 1.265483 3.638201 -38.349822 0.000000 0.000000 0.000001 8.077801 -0.486896 -3.806303 1.152561 25.023778 -17.568539 2.223968 4.594405 -51.642883 1.265309 3.637978 -38.346895 0.000000 -0.000001 0.000001 -8.207799 -6.751713 -1.599538 -65.237555 16.009632 -34.623602 21.322426 -4.563423 -2.244715 37.492165 -21.595764 22.644942 -6.944985 -0.000002 -0.000001 0.000000 0.000001 -0.000000 8.207797 -6.751700 -1.599556 -60.724931 22.364297 5.863458 73.037678 9.703452 2.113641 -24.696210 29.496527 -12.367371 -1.898494 0.000004 -0.000009 0.000000 0.000001 0.000000 
1.693060 81.020477 4.705235 42.319101 55.244308 -21.376042 0.000004 10.181556 0.131520 15.497465 -6.548411 -6.777760 -5.262554 -0.008336 -3.597998 0.713036 -0.793860 -3.746678 0.000001 16.740353 -2.049027 -12.705040 -9.781288 1.593890 0.000002 9.617825 1.684976 2.888539 -45.441716 16.915896 -0.000002 22.037384 7.501076 -0.000001 0.000000 0.000000 -4.569996 11.014869 -2.160851 2.490438 12.417002 14.116949 -51.305840 -0.447708 23.083405 -0.000059 52.532692 0.000098 33.732638 6.349358 -45.224291 -2.464799 -1.573974 2.681905 -13.883088 -3.695150 13.911962 7.375304 -23.020801 -2.783653 -2.646265 -1.527788 1.527821 -3.459172 -24.954462 -18.671241 -1.994602 -1.151582 1.151577 0.000001 -0.000005 0.000001 -9.108303 -0.517860 2.259796 0.078011 -1.754124 -6.493639 0.027750 -0.508187 6.250788 0.018223 -0.412063 5.065101 0.000000 -0.000001 -0.000001 -9.532511 0.000015 -0.000008 0.068867 -2.722103 5.410670 0.028368 -0.513849 6.320907 0.011458 -0.326842 4.015640 -0.000000 0.000001 -0.000001 -9.103606 -0.043109 -1.865108 3.283473 -10.155120 25.110502 0.330884 -1.725727 21.706264 0.456535 -2.012743 25.557033 -0.000001 0.000001 -0.000002 -8.076699 -0.486722 -3.806304 10.235410 -21.028443 34.973253 0.938128 -2.805169 36.976674 2.300849 -4.018214 59.577698 -0.000000 -0.000000 0.000001 4.570402 11.014698 -2.160823 6.190552 4.540308 -9.829575 29.284156 -20.682953 -24.707852 -0.000003 -53.088783 -0.000011 -6.237887 -29.765176 22.121719 2.466093 -1.576200 2.681698 -16.063763 -0.644301 -1.721599 4.401029 20.298412 -9.586119 2.647881 -1.528745 1.528753 -17.892562 -22.034602 5.837298 1.998921 -1.154081 1.154075 0.000001 -0.000004 -0.000002 9.109307 -0.518017 2.259896 2.184450 -10.355547 2.710292 0.195052 1.500693 -14.811747 0.025218 0.543676 -5.313048 -0.000000 0.000002 0.000001 9.533403 0.000006 0.000001 -0.505266 -0.552169 -9.697531 0.204901 1.537499 -15.183804 0.025198 0.543387 -5.310140 0.000000 0.000000 -0.000000 9.104496 -0.042995 -1.865102 4.540165 16.352506 -18.454836 2.291111 4.646574 -52.476309 1.265473 3.638207 -38.349822 0.000000 0.000000 0.000001 8.077808 -0.486881 -3.806297 1.152551 25.023783 -17.568553 2.223962 4.594411 -51.642852 1.265308 3.637975 -38.346905 -0.000000 -0.000000 0.000001 -8.207796 -6.751693 -1.599546 -65.416499 15.985057 -35.340198 21.432232 -4.830884 -2.273400 37.827763 -21.900523 23.207514 -6.804299 0.000004 0.000005 0.000000 -0.000001 -0.000000 8.207801 -6.751694 -1.599562 -61.668993 21.787151 5.266631 73.579053 9.782777 2.093176 -24.903426 29.532785 -11.739383 -1.750156 -0.000011 0.000003 0.000000 -0.000001 0.000000 
